<?xml version="1.0" encoding="UTF-8"?>
<svg xmlns="http://www.w3.org/2000/svg" version="1.1" viewBox="0 0 198.06 197.76">
  <defs>
    <style>
      .cls-1 {
        fill: #191644;
      }

      .cls-2 {
        fill: #f16323;
      }
    </style>
  </defs>
  <!-- Generator: Adobe Illustrator 28.7.1, SVG Export Plug-In . SVG Version: 1.2.0 Build 142)  -->
  <g>
    <g id="Layer_1">
      <g>
        <path class="cls-2" d="M64.68,143.2c-4.38-.23-7.34-1.93-9.09-5.41-1.85-3.67-1.42-7.17.98-10.49,6.86-9.48,6.86-12.89.07-22.19-3.26-4.46-2.82-9.82,1.1-13.45,3.67-3.4,9.39-3.5,13.11-.23,3.88,3.42,4.38,8.91,1.21,13.46-6.73,9.67-6.74,12.79,0,22.33,2.33,3.3,3.02,6.74,1.11,10.48-1.88,3.69-5,5.32-8.48,5.51Z"/>
        <path class="cls-1" d="M64.02,89.03c4.38.23,7.34,1.93,9.09,5.41,1.85,3.67,1.42,7.17-.98,10.49-6.86,9.48-6.86,12.89-.07,22.19,3.26,4.46,2.82,9.82-1.1,13.45-3.67,3.4-9.39,3.5-13.11.23-3.88-3.42-4.38-8.91-1.21-13.46,6.73-9.67,6.74-12.79,0-22.33-2.33-3.3-3.02-6.74-1.11-10.48,1.88-3.69,5-5.32,8.48-5.51Z"/>
        <path class="cls-1" d="M133.48,54.63c5.43,0,9.95,4.51,9.83,9.8-.12,5.36-4.68,9.82-9.99,9.79-5.26-.03-9.88-4.71-9.82-9.95.06-5.37,4.49-9.66,9.99-9.65Z"/>
        <path class="cls-1" d="M133.49,143.34c-5.1.14-9.85-4.5-9.99-9.75-.14-5.3,4.24-9.95,9.52-10.11,5.59-.16,10.27,4.35,10.29,9.92.02,5.22-4.5,9.79-9.82,9.94Z"/>
        <path class="cls-2" d="M133.4,89.1c5.56,0,9.82,4.2,9.88,9.75.06,5.35-4.41,9.81-9.87,9.84-5.37.04-9.78-4.35-9.9-9.85-.12-5.33,4.35-9.74,9.88-9.74Z"/>
        <path class="cls-1" d="M74.16,64.32c.03,5.47-4.24,9.83-9.73,9.91-5.39.08-9.85-4.33-9.89-9.79-.05-5.34,4.46-9.9,9.8-9.91,5.56-.02,9.79,4.2,9.82,9.79Z"/>
        <path class="cls-2" d="M108.77,99.06c-.06,5.35-4.59,9.64-10.06,9.52-5.56-.12-9.77-4.46-9.62-9.94.15-5.48,4.55-9.66,10.06-9.56,5.49.1,9.69,4.45,9.63,9.98Z"/>
        <path class="cls-1" d="M99.11,143.22c-5.56.07-9.87-4.09-9.98-9.64-.11-5.5,4.07-9.95,9.53-10.12,5.31-.17,9.95,4.28,10.05,9.65.11,5.42-4.29,10.04-9.61,10.11Z"/>
        <path class="cls-1" d="M98.89,74.26c-5.39-.03-9.79-4.48-9.8-9.91-.02-5.37,4.43-9.76,9.88-9.76,5.46,0,9.7,4.26,9.81,9.85.1,5.19-4.59,9.85-9.89,9.82Z"/>
      </g>
    </g>
  </g>
</svg>