<svg width="89" height="89" viewBox="0 0 89 89" fill="none" xmlns="http://www.w3.org/2000/svg">
<path d="M10.257 88.6701C5.87696 88.4401 2.91696 86.7401 1.16696 83.2601C-0.683039 79.5901 -0.253039 76.0901 2.14696 72.7701C9.00696 63.2901 9.00696 59.8801 2.21696 50.5801C-1.04304 46.1201 -0.603037 40.7601 3.31696 37.1301C6.98696 33.7301 12.707 33.6301 16.427 36.9001C20.307 40.3201 20.807 45.8101 17.637 50.3601C10.907 60.0301 10.897 63.1501 17.637 72.6901C19.967 75.9901 20.657 79.4301 18.747 83.1701C16.867 86.8601 13.747 88.4901 10.267 88.6801L10.257 88.6701Z" fill="#F16323"/>
<path d="M9.59553 34.5001C13.9755 34.7301 16.9355 36.4301 18.6855 39.9101C20.5355 43.5801 20.1055 47.0801 17.7055 50.4001C10.8455 59.8801 10.8455 63.2901 17.6355 72.5901C20.8955 77.0501 20.4555 82.4101 16.5355 86.0401C12.8655 89.4401 7.14553 89.5401 3.42553 86.2701C-0.45447 82.8501 -0.954469 77.3601 2.21553 72.8101C8.94553 63.1401 8.95553 60.0201 2.21553 50.4801C-0.114469 47.1801 -0.804469 43.7401 1.10553 40.0001C2.98553 36.3101 6.10553 34.6801 9.58553 34.4901L9.59553 34.5001Z" fill="#191644"/>
<path d="M79.0548 0.100077C84.4848 0.100077 89.0048 4.61008 88.8848 9.90008C88.7648 15.2601 84.2048 19.7201 78.8948 19.6901C73.6348 19.6601 69.0148 14.9801 69.0748 9.74007C69.1348 4.37007 73.5648 0.0800748 79.0648 0.0900748L79.0548 0.100077Z" fill="#191644"/>
<path d="M79.0636 88.8101C73.9636 88.9501 69.2136 84.3101 69.0736 79.0601C68.9336 73.7601 73.3136 69.1101 78.5936 68.9501C84.1836 68.7901 88.8636 73.3001 88.8836 78.8701C88.9036 84.0901 84.3836 88.6601 79.0636 88.8101Z" fill="#191644"/>
<path d="M78.9744 34.5701C84.5344 34.5701 88.7944 38.7701 88.8544 44.3201C88.9144 49.6701 84.4444 54.1301 78.9844 54.1601C73.6144 54.2001 69.2044 49.8101 69.0844 44.3101C68.9644 38.9801 73.4344 34.5701 78.9644 34.5701H78.9744Z" fill="#F16323"/>
<path d="M19.7337 9.79007C19.7637 15.2601 15.4937 19.6201 10.0037 19.7001C4.61369 19.7801 0.153693 15.3701 0.113693 9.91007C0.0636931 4.57007 4.57369 0.0100708 9.91369 7.07924e-05C15.4737 -0.0199292 19.7037 4.20007 19.7337 9.79007Z" fill="#191644"/>
<path d="M54.344 44.5301C54.284 49.8801 49.754 54.1701 44.284 54.0501C38.724 53.9301 34.514 49.5901 34.664 44.1101C34.814 38.6301 39.214 34.4501 44.724 34.5501C50.214 34.6501 54.414 39.0001 54.354 44.5301H54.344Z" fill="#F16323"/>
<path d="M44.6853 88.6901C39.1253 88.7601 34.8152 84.6001 34.7052 79.0501C34.5952 73.5501 38.7753 69.1001 44.2353 68.9301C49.5453 68.7601 54.1852 73.2101 54.2852 78.5801C54.3952 84.0001 49.9952 88.6201 44.6752 88.6901H44.6853Z" fill="#191644"/>
<path d="M44.4641 19.7301C39.0741 19.7001 34.6741 15.2501 34.6641 9.82007C34.6441 4.45007 39.0941 0.0600739 44.5441 0.0600739C50.0041 0.0600739 54.2441 4.32008 54.3541 9.91008C54.4541 15.1001 49.7641 19.7601 44.4641 19.7301Z" fill="#191644"/>
</svg>
