<?xml version="1.0" encoding="UTF-8"?><svg id="Layer_1" xmlns="http://www.w3.org/2000/svg" viewBox="0 0 521.97 183.37"><defs><style>.cls-1{fill:#fff;}</style></defs><path class="cls-1" d="M59.6,133.39c-4.08-.22-6.84-1.8-8.47-5.04-1.73-3.42-1.32-6.68.92-9.78,6.39-8.83,6.39-12.01.06-20.67-3.04-4.16-2.63-9.15,1.02-12.53,3.42-3.17,8.75-3.26,12.21-.21,3.62,3.19,4.08,8.3,1.13,12.54-6.27,9.01-6.28,11.91,0,20.8,2.17,3.07,2.81,6.28,1.04,9.76-1.75,3.44-4.66,4.96-7.9,5.13Z"/><path class="cls-1" d="M123.69,50.65c5.06,0,9.27,4.21,9.16,9.13-.11,4.99-4.36,9.15-9.31,9.12-4.9-.03-9.2-4.39-9.15-9.27.05-5,4.19-9,9.3-8.99Z"/><path class="cls-1" d="M123.7,133.39c-4.75.13-9.18-4.19-9.31-9.09-.13-4.94,3.95-9.27,8.87-9.42,5.21-.15,9.56,4.05,9.58,9.24.02,4.86-4.19,9.12-9.15,9.26Z"/><path class="cls-1" d="M123.62,82.86c5.18,0,9.15,3.91,9.21,9.09.06,4.98-4.11,9.14-9.19,9.17-5,.03-9.11-4.05-9.22-9.18-.11-4.97,4.06-9.07,9.21-9.08Z"/><path class="cls-1" d="M68.43,59.78c.03,5.1-3.95,9.16-9.06,9.23-5.03.07-9.17-4.03-9.22-9.12-.04-4.98,4.15-9.22,9.13-9.23,5.18-.01,9.12,3.91,9.15,9.12Z"/><path class="cls-1" d="M100.68,92.15c-.05,4.99-4.28,8.98-9.38,8.87-5.18-.11-9.1-4.16-8.97-9.26.14-5.1,4.24-9,9.37-8.91,5.12.09,9.03,4.15,8.97,9.3Z"/><path class="cls-1" d="M91.68,133.39c-5.18.07-9.19-3.81-9.29-8.98-.1-5.13,3.8-9.27,8.88-9.43,4.95-.16,9.27,3.98,9.37,8.99.1,5.05-3.99,9.35-8.95,9.42Z"/><path class="cls-1" d="M91.46,68.98c-5.02-.03-9.12-4.17-9.13-9.23-.02-5.01,4.13-9.1,9.21-9.09,5.08,0,9.03,3.97,9.14,9.18.1,4.84-4.28,9.18-9.21,9.15Z"/><path class="cls-1" d="M198.98,100.65c-1.26,3.28-3.27,5.79-5.96,7.49-2.71,1.7-5.93,2.56-9.59,2.56-5.4,0-9.83-1.79-13.17-5.31-3.35-3.53-5.05-8.04-5.05-13.41s1.7-9.88,5.05-13.41c3.34-3.52,7.69-5.31,12.93-5.31,3.49,0,6.58.82,9.19,2.44,2.6,1.61,4.51,3.85,5.69,6.64l.23.55,4.07-1.91-.24-.52c-1.6-3.5-4.1-6.31-7.43-8.35-3.32-2.04-7.2-3.07-11.51-3.07-6.46,0-11.88,2.21-16.12,6.58-4.24,4.36-6.39,9.87-6.39,16.36s2.15,12.05,6.39,16.39c4.24,4.35,9.75,6.55,16.37,6.55,4.52,0,8.56-1.08,12.01-3.2,3.46-2.13,6.02-5.26,7.63-9.3l.2-.51-4.07-1.83-.22.56Z"/><path class="cls-1" d="M213.46,87.61v-5.25h-4.23v32.42h4.23v-15.7c0-4.12.93-7.38,2.77-9.69,1.83-2.3,4.33-3.42,7.62-3.42.34,0,.79.04,1.34.12l.65.09v-4.44h-1.5c-4.96,0-8.61,1.97-10.89,5.87Z"/><path class="cls-1" d="M244.19,81.74c-4.62,0-8.49,1.6-11.51,4.77-3.01,3.16-4.53,7.13-4.53,11.83s1.52,8.77,4.5,11.89c2.99,3.12,7.04,4.71,12.03,4.71,6.7,0,11.41-2.66,14.01-7.9l.27-.54-3.87-1.68-.25.47c-2.01,3.82-5.31,5.67-10.09,5.67-3.61,0-6.54-1.07-8.72-3.17-2.05-1.98-3.24-4.55-3.54-7.64h27.31v-.57c0-.11,0-.29.03-.54.02-.28.03-.51.03-.69,0-4.68-1.46-8.66-4.34-11.82-2.89-3.17-6.71-4.78-11.33-4.78ZM255.56,96.22h-23.05c.44-2.93,1.69-5.4,3.72-7.33,2.16-2.06,4.86-3.11,8.02-3.11s5.84,1.03,7.85,3.07c1.9,1.92,3.06,4.4,3.46,7.37Z"/><path class="cls-1" d="M291.87,88.17c-1.02-1.61-2.36-2.98-4.01-4.08-2.33-1.56-5.08-2.35-8.17-2.35-4.55,0-8.29,1.61-11.12,4.78-2.82,3.15-4.24,7.13-4.24,11.81s1.43,8.71,4.24,11.84c2.83,3.15,6.57,4.75,11.12,4.75,3.14,0,5.9-.79,8.21-2.35,1.63-1.1,2.96-2.46,3.97-4.07v6.27h4.23v-32.42h-4.23v5.81ZM288.57,89.33c2.19,2.37,3.3,5.4,3.3,9.01s-1.11,6.66-3.3,9.04c-2.18,2.37-5.02,3.57-8.45,3.57s-6.19-1.18-8.32-3.6c-2.11-2.41-3.19-5.44-3.19-9.02s1.07-6.6,3.18-8.99c2.12-2.4,4.85-3.57,8.32-3.57s6.28,1.19,8.45,3.54Z"/><path class="cls-1" d="M316.16,110.76c-1.94,0-3.29-.47-4.01-1.41-.76-.98-1.14-2.59-1.14-4.8v-18.16h9.61v-4.04h-9.61v-8.87h-4.23v8.87h-6.1v4.04h6.1v18.34c0,3.03.66,5.46,1.96,7.24,1.34,1.83,3.71,2.76,7.06,2.76,2.05,0,3.55-.17,4.56-.52l.38-.13v-4.1l-.75.25c-1.05.35-2.33.53-3.82.53Z"/><path class="cls-1" d="M341.24,81.74c-4.82,0-8.84,1.6-11.93,4.76-3.09,3.16-4.66,7.14-4.66,11.83s1.57,8.67,4.66,11.83c3.1,3.16,7.11,4.76,11.93,4.76s8.84-1.6,11.96-4.76c3.11-3.16,4.69-7.14,4.69-11.83s-1.58-8.68-4.69-11.83c-3.12-3.16-7.14-4.76-11.96-4.76ZM341.24,110.95c-3.6,0-6.58-1.21-8.86-3.61-2.29-2.4-3.45-5.43-3.45-9s1.16-6.59,3.45-8.97c2.28-2.38,5.26-3.58,8.86-3.58s6.58,1.21,8.86,3.58c2.29,2.38,3.45,5.4,3.45,8.97s-1.16,6.6-3.45,9c-2.28,2.4-5.26,3.61-8.86,3.61Z"/><path class="cls-1" d="M379.63,81.74c-4.96,0-8.61,1.97-10.89,5.87v-5.25h-4.23v32.49h4.23v-15.78c0-4.12.93-7.38,2.77-9.69,1.83-2.3,4.33-3.42,7.62-3.42.34,0,.79.04,1.34.12l.65.09v-4.44h-1.5Z"/><path class="cls-1" d="M407.85,69.14h-16.09v45.71h16.42c7.46,0,13.3-2.08,17.35-6.19,4.05-4.11,6.11-9.71,6.11-16.67s-2.1-12.51-6.24-16.64c-4.14-4.13-10.05-6.22-17.55-6.22ZM401.37,77.73h6.42c4.67,0,8.21,1.28,10.51,3.8,2.31,2.53,3.48,6.05,3.48,10.47s-1.12,7.95-3.32,10.48c-2.19,2.52-5.67,3.8-10.34,3.8h-6.74v-28.55Z"/><path class="cls-1" d="M464.54,91.31c4.68-1.85,7.05-5.4,7.05-10.56,0-3.61-1.25-6.48-3.73-8.54-2.46-2.04-6.31-3.07-11.44-3.07h-17.6v45.71h18.13c10.63,0,16.02-4.21,16.02-12.5,0-5.78-2.83-9.49-8.43-11.04ZM448.42,95.94h6.94c2.65,0,4.63.41,5.89,1.23,1.24.8,1.84,2.14,1.84,4.1,0,1.85-.57,3.22-1.69,4.08-1.15.87-3.18,1.31-6.04,1.31h-6.94v-10.72ZM454.57,88.06h-6.15v-10.72h6.15c2.68,0,4.59.42,5.68,1.25,1.06.81,1.59,2.14,1.59,3.95,0,3.71-2.38,5.52-7.27,5.52Z"/></svg>